<mxfile host="app.diagrams.net" modified="2021-05-15T16:54:39.785Z" agent="5.0 (Windows NT 10.0; Win64; x64) AppleWebKit/537.36 (KHTML, like Gecko) Chrome/90.0.4430.93 Safari/537.36 Edg/90.0.818.56" etag="C0Gp_YNyGstcecBmTBUc" version="14.6.11" type="github">
  <diagram id="KYFE71kvslrRByT5P2VC" name="Page-1">
    <mxGraphModel dx="1021" dy="579" grid="1" gridSize="10" guides="1" tooltips="1" connect="1" arrows="1" fold="1" page="1" pageScale="1" pageWidth="827" pageHeight="1169" math="0" shadow="0">
      <root>
        <mxCell id="0" />
        <mxCell id="1" parent="0" />
        <mxCell id="GMWEnys_rdQAJYICsUMd-2" value="" style="whiteSpace=wrap;html=1;aspect=fixed;" parent="1" vertex="1">
          <mxGeometry x="30" y="20" width="600" height="600" as="geometry" />
        </mxCell>
        <mxCell id="GMWEnys_rdQAJYICsUMd-4" value="" style="rounded=0;whiteSpace=wrap;html=1;" parent="1" vertex="1">
          <mxGeometry x="310" y="80" width="280" height="50" as="geometry" />
        </mxCell>
        <mxCell id="GMWEnys_rdQAJYICsUMd-5" value="&lt;font style=&quot;font-size: 15px&quot;&gt;Name&lt;/font&gt;" style="text;html=1;strokeColor=none;fillColor=none;align=center;verticalAlign=middle;whiteSpace=wrap;rounded=0;" parent="1" vertex="1">
          <mxGeometry x="80" y="80" width="200" height="50" as="geometry" />
        </mxCell>
        <mxCell id="0Za350X6Nrc4YWKQTrKn-1" value="" style="rounded=0;whiteSpace=wrap;html=1;" vertex="1" parent="1">
          <mxGeometry x="310" y="160" width="280" height="50" as="geometry" />
        </mxCell>
        <mxCell id="0Za350X6Nrc4YWKQTrKn-2" value="&lt;font style=&quot;font-size: 15px&quot;&gt;Phone Number&lt;/font&gt;" style="text;html=1;strokeColor=none;fillColor=none;align=center;verticalAlign=middle;whiteSpace=wrap;rounded=0;" vertex="1" parent="1">
          <mxGeometry x="90" y="160" width="190" height="50" as="geometry" />
        </mxCell>
        <mxCell id="0Za350X6Nrc4YWKQTrKn-3" value="&lt;font style=&quot;font-size: 15px&quot;&gt;Password&lt;/font&gt;" style="text;html=1;strokeColor=none;fillColor=none;align=center;verticalAlign=middle;whiteSpace=wrap;rounded=0;" vertex="1" parent="1">
          <mxGeometry x="120" y="240" width="160" height="50" as="geometry" />
        </mxCell>
        <mxCell id="0Za350X6Nrc4YWKQTrKn-4" value="" style="rounded=0;whiteSpace=wrap;html=1;" vertex="1" parent="1">
          <mxGeometry x="310" y="240" width="280" height="40" as="geometry" />
        </mxCell>
        <mxCell id="0Za350X6Nrc4YWKQTrKn-5" value="&lt;font style=&quot;font-size: 14px&quot;&gt;REGISTER&lt;/font&gt;" style="rounded=1;whiteSpace=wrap;html=1;arcSize=50;" vertex="1" parent="1">
          <mxGeometry x="260" y="330" width="120" height="30" as="geometry" />
        </mxCell>
        <mxCell id="0Za350X6Nrc4YWKQTrKn-6" value="&lt;h1&gt;Security Person&lt;/h1&gt;" style="text;html=1;strokeColor=none;fillColor=none;spacing=5;spacingTop=-20;whiteSpace=wrap;overflow=hidden;rounded=0;" vertex="1" parent="1">
          <mxGeometry x="210" y="35" width="220" height="45" as="geometry" />
        </mxCell>
      </root>
    </mxGraphModel>
  </diagram>
</mxfile>
